<svg width="14" height="24" viewBox="0 0 14 24" fill="none" xmlns="http://www.w3.org/2000/svg">
<path fill-rule="evenodd" clip-rule="evenodd" d="M5.37853 0.550191C5.72141 0.19791 6.18648 0 6.67139 0C7.15619 0 7.62126 0.19791 7.96414 0.550191C9.32309 1.94641 11.4484 4.13005 12.8074 5.52627C13.1503 5.87855 13.3429 6.35638 13.3429 6.85459C13.3429 7.35268 13.1503 7.83051 12.8074 8.18279C12.2071 8.79956 11.6239 9.39871 11.6239 9.39871C11.6239 9.39871 8.67466 6.36856 7.32792 4.98488C7.15384 4.80603 6.91767 4.70545 6.67139 4.70545C6.42512 4.70545 6.18883 4.80603 6.01475 4.98488C5.65521 5.35429 5.21114 5.81053 4.8516 6.17994C4.67752 6.35879 4.57962 6.60157 4.57962 6.85459C4.57962 7.10762 4.67752 7.35027 4.8516 7.52913C5.58525 8.2829 6.67139 9.39871 6.67139 9.39871L4.19507 11.943C4.19507 11.943 2.0027 9.69045 0.535289 8.18279C-0.178755 7.44917 -0.178755 6.2599 0.535289 5.52627C1.89424 4.13005 4.01958 1.94641 5.37853 0.550191Z" fill="#16B198"/>
<path fill-rule="evenodd" clip-rule="evenodd" d="M7.96435 23.3356C7.62148 23.6879 7.1564 23.8858 6.67161 23.8858C6.1867 23.8858 5.72162 23.6879 5.37875 23.3356C4.0198 21.9394 1.89445 19.7557 0.535504 18.3596C0.192626 18.0073 0 17.5294 0 17.0312C0 16.533 0.192626 16.0553 0.535504 15.703C1.1358 15.0863 1.71896 14.4871 1.71896 14.4871C1.71896 14.4871 4.66823 17.5173 6.01497 18.9008C6.18905 19.0798 6.42534 19.1803 6.67161 19.1803C6.91788 19.1803 7.15406 19.0798 7.32814 18.9008C7.68768 18.5315 8.13174 18.0752 8.49129 17.7059C8.66537 17.5269 8.76327 17.2843 8.76327 17.0312C8.76327 16.7782 8.66537 16.5356 8.49129 16.3567C7.75764 15.6029 6.67161 14.4871 6.67161 14.4871L9.14781 11.9429C9.14781 11.9429 11.3402 14.1954 12.8076 15.703C13.5216 16.4365 13.5216 17.6259 12.8076 18.3596C11.4486 19.7557 9.3233 21.9394 7.96435 23.3356Z" fill="#16B198"/>
</svg>
