<svg width="34" height="35" viewBox="0 0 34 35" fill="none" xmlns="http://www.w3.org/2000/svg">
<path d="M17 33.7353C26.1071 33.7353 33.5 26.4379 33.5 17.4236C33.5 8.40928 26.1071 1.11182 17 1.11182C7.8929 1.11182 0.5 8.40928 0.5 17.4236C0.5 26.4379 7.8929 33.7353 17 33.7353Z" stroke="#333333"/>
<path d="M13.3182 8.5293C10.386 8.5293 8 10.8872 8 13.7849V21.0619C8 23.9596 10.386 26.3175 13.3182 26.3175H20.6818C23.614 26.3175 26 23.9596 26 21.0619V13.7849C26 10.8872 23.614 8.5293 20.6818 8.5293H13.3182ZM13.3182 9.33785H20.6818C23.1717 9.33785 25.1818 11.3243 25.1818 13.7849V21.0619C25.1818 23.5225 23.1717 25.509 20.6818 25.509H13.3182C10.8283 25.509 8.81818 23.5225 8.81818 21.0619V13.7849C8.81818 11.3243 10.8283 9.33785 13.3182 9.33785ZM21.9091 11.7635C21.4572 11.7635 21.0909 12.1255 21.0909 12.5721C21.0909 13.0186 21.4572 13.3806 21.9091 13.3806C22.361 13.3806 22.7273 13.0186 22.7273 12.5721C22.7273 12.1255 22.361 11.7635 21.9091 11.7635ZM17 12.9764C14.5196 12.9764 12.5 14.9722 12.5 17.4234C12.5 19.8747 14.5196 21.8705 17 21.8705C19.4804 21.8705 21.5 19.8747 21.5 17.4234C21.5 14.9722 19.4804 12.9764 17 12.9764ZM17 13.7849C19.0383 13.7849 20.6818 15.4091 20.6818 17.4234C20.6818 19.4377 19.0383 21.0619 17 21.0619C14.9617 21.0619 13.3182 19.4377 13.3182 17.4234C13.3182 15.4091 14.9617 13.7849 17 13.7849Z" fill="#333333"/>
</svg>
