<svg width="34" height="35" viewBox="0 0 34 35" fill="none" xmlns="http://www.w3.org/2000/svg">
<path d="M17 33.7353C26.1071 33.7353 33.5 26.4379 33.5 17.4236C33.5 8.40928 26.1071 1.11182 17 1.11182C7.8929 1.11182 0.5 8.40928 0.5 17.4236C0.5 26.4379 7.8929 33.7353 17 33.7353Z" stroke="#333333"/>
<path d="M8 13.7175H11.75V26.3175H8V13.7175ZM9.86375 12.2352H9.84275C8.72375 12.2352 8 11.411 8 10.3815C8 9.32977 8.74625 8.5293 9.8855 8.5293C11.0262 8.5293 11.729 9.32977 11.75 10.3815C11.75 11.4102 11.0262 12.2352 9.86375 12.2352ZM26 26.3175H22.25V19.5736C22.25 17.9445 21.3313 16.8327 19.856 16.8327C18.7303 16.8327 18.1213 17.5828 17.8258 18.3076C17.7177 18.567 17.75 19.2845 17.75 19.6469V26.3175H14V13.7175H17.75V15.6564C18.2907 14.8293 19.1375 13.7175 21.3035 13.7175C23.987 13.7175 25.9993 15.3852 25.9993 19.1088L26 26.3175Z" fill="#333333"/>
</svg>
