<svg width="32" height="33" viewBox="0 0 32 33" fill="none" xmlns="http://www.w3.org/2000/svg">
<path d="M16 32.2353C13.8403 32.2353 11.7449 31.8172 9.77191 30.9926C7.86643 30.1962 6.15541 29.0563 4.68633 27.6041C3.21725 26.152 2.06343 24.4611 1.2575 22.5784C0.423152 20.6286 0 18.5579 0 16.4236C0 14.2893 0.423152 12.2185 1.2575 10.2688C2.06343 8.3857 3.21693 6.69481 4.68633 5.24301C6.15573 3.7909 7.86675 2.65097 9.77191 1.85453C11.7449 1.02999 13.8403 0.611816 16 0.611816C18.1597 0.611816 20.2551 1.02999 22.2281 1.85453C24.1336 2.65097 25.8446 3.7909 27.3137 5.24301C28.7831 6.69513 29.9366 8.38602 30.7425 10.2688C31.5768 12.2185 32 14.2893 32 16.4236C32 18.5579 31.5768 20.6286 30.7425 22.5784C29.9366 24.4615 28.7831 26.1523 27.3137 27.6041C25.8443 29.0559 24.1332 30.1962 22.2281 30.9926C20.2551 31.8172 18.1597 32.2353 16 32.2353ZM16 1.5053C7.67618 1.5053 0.904448 8.19737 0.904448 16.4233C0.904448 24.6492 7.67618 31.3412 16 31.3412C24.3238 31.3412 31.0956 24.6488 31.0956 16.4233C31.0956 8.19769 24.3238 1.5053 16 1.5053Z" fill="#333333"/>
<path d="M9.13123 9.66406L14.4096 17.2685L9.24302 23.1831H10.3877L14.9151 17.9967L18.5151 23.1831H22.8401L17.3254 15.2389L22.1918 9.66406H21.0506L16.8192 14.5086L13.4561 9.66406H9.13123ZM10.4981 10.3756H13.0772L21.4732 22.4716H18.8941L10.4981 10.3756Z" fill="#333333"/>
</svg>
